<svg width="482" height="189" viewBox="0 0 482 189" fill="none" xmlns="http://www.w3.org/2000/svg">
<path d="M18 10L0 29.5V201.5H530.5V165.5L511.5 169.5L494 141L475 137L456.5 84.5L439.5 93.5L420.5 111.5L401.5 97.5L383 102L366 111.5L347 98.5L329.5 111.5L293 100L274 109.5L255.5 98.5L237.5 122L219 111.5L201.5 117L163.5 118.5L144 106.5L127 91.5L109.5 100.5L90.5 75L72.5 82L54 33.5L36.5 2L18 10Z" fill="url(#paint0_linear_603_4103)" stroke="url(#paint1_linear_603_4103)" stroke-width="2"/>
<line x1="88.5" y1="9" x2="88.5" y2="202" stroke="url(#paint2_linear_603_4103)" stroke-dasharray="3 3"/>
<line x1="176.5" y1="9" x2="176.5" y2="202" stroke="url(#paint3_linear_603_4103)" stroke-dasharray="3 3"/>
<line x1="264.5" y1="9" x2="264.5" y2="202" stroke="url(#paint4_linear_603_4103)" stroke-dasharray="3 3"/>
<line x1="352.5" y1="9" x2="352.5" y2="202" stroke="url(#paint5_linear_603_4103)" stroke-dasharray="3 3"/>
<line x1="440.5" y1="9" x2="440.5" y2="202" stroke="url(#paint6_linear_603_4103)" stroke-dasharray="3 3"/>
<g filter="url(#filter0_d_603_4103)">
<rect x="368" y="135" width="90" height="30" rx="15" fill="white" shape-rendering="crispEdges"/>
<path d="M388.25 145.633C388.672 145.627 390.07 145.337 390.367 145.633C390.663 145.93 390.373 147.328 390.367 147.75M390.253 145.745L386.751 149.248" stroke="#2D2D2D" stroke-linecap="round" stroke-linejoin="round"/>
<path d="M381.633 152.25C381.627 152.672 381.337 154.07 381.633 154.367C381.93 154.663 383.328 154.373 383.75 154.367M385.251 150.749L381.749 154.251" stroke="#2D2D2D" stroke-linecap="round" stroke-linejoin="round"/>
<path d="M403.296 154V146.08H408.852V146.98H404.256V149.536H407.832V150.436H404.256V153.1H409.032V154H403.296ZM411.344 148L413.132 150.508L413.192 150.592L415.652 154H414.476L412.616 151.396L412.508 151.264L410.144 148H411.344ZM415.616 148L413.24 151.204H413.18L411.116 154H410L412.616 150.556H412.688L414.488 148H415.616ZM417.167 156.52V148H418.007L418.091 149.464L417.959 149.296C418.063 149.016 418.219 148.772 418.427 148.564C418.635 148.348 418.887 148.18 419.183 148.06C419.479 147.94 419.799 147.88 420.143 147.88C420.631 147.88 421.079 148.004 421.487 148.252C421.903 148.5 422.235 148.856 422.483 149.32C422.731 149.784 422.855 150.344 422.855 151C422.855 151.648 422.727 152.208 422.471 152.68C422.223 153.144 421.891 153.5 421.475 153.748C421.059 153.996 420.603 154.12 420.107 154.12C419.611 154.12 419.175 154 418.799 153.76C418.431 153.512 418.167 153.2 418.007 152.824L418.127 152.644V156.52H417.167ZM420.011 153.28C420.603 153.28 421.063 153.072 421.391 152.656C421.727 152.24 421.895 151.688 421.895 151C421.895 150.312 421.731 149.76 421.403 149.344C421.083 148.928 420.631 148.72 420.047 148.72C419.663 148.72 419.327 148.816 419.039 149.008C418.751 149.192 418.527 149.456 418.367 149.8C418.207 150.136 418.127 150.536 418.127 151C418.127 151.456 418.203 151.856 418.355 152.2C418.515 152.544 418.735 152.812 419.015 153.004C419.303 153.188 419.635 153.28 420.011 153.28ZM428.194 150.124C428.194 149.676 428.074 149.332 427.834 149.092C427.594 148.844 427.254 148.72 426.814 148.72C426.398 148.72 426.046 148.812 425.758 148.996C425.47 149.172 425.258 149.46 425.122 149.86L424.342 149.38C424.502 148.932 424.798 148.572 425.23 148.3C425.662 148.02 426.198 147.88 426.838 147.88C427.27 147.88 427.662 147.956 428.014 148.108C428.366 148.252 428.642 148.476 428.842 148.78C429.05 149.076 429.154 149.46 429.154 149.932V152.836C429.154 153.124 429.306 153.268 429.61 153.268C429.762 153.268 429.91 153.248 430.054 153.208L430.006 153.964C429.846 154.044 429.638 154.084 429.382 154.084C429.15 154.084 428.942 154.04 428.758 153.952C428.574 153.864 428.43 153.732 428.326 153.556C428.222 153.372 428.17 153.144 428.17 152.872V152.752L428.41 152.788C428.314 153.1 428.15 153.356 427.918 153.556C427.686 153.748 427.426 153.892 427.138 153.988C426.85 154.076 426.566 154.12 426.286 154.12C425.934 154.12 425.606 154.06 425.302 153.94C424.998 153.82 424.754 153.64 424.57 153.4C424.394 153.152 424.306 152.848 424.306 152.488C424.306 152.04 424.454 151.672 424.75 151.384C425.054 151.088 425.474 150.888 426.01 150.784L428.386 150.316V151.108L426.454 151.504C426.062 151.584 425.77 151.696 425.578 151.84C425.386 151.984 425.29 152.184 425.29 152.44C425.29 152.688 425.386 152.892 425.578 153.052C425.778 153.204 426.058 153.28 426.418 153.28C426.65 153.28 426.87 153.252 427.078 153.196C427.294 153.132 427.486 153.04 427.654 152.92C427.822 152.792 427.954 152.636 428.05 152.452C428.146 152.26 428.194 152.036 428.194 151.78V150.124ZM431.487 154V148H432.327L432.411 149.344L432.255 149.212C432.383 148.892 432.555 148.636 432.771 148.444C432.987 148.244 433.235 148.1 433.515 148.012C433.803 147.924 434.099 147.88 434.403 147.88C434.835 147.88 435.227 147.964 435.579 148.132C435.931 148.292 436.211 148.54 436.419 148.876C436.635 149.212 436.743 149.64 436.743 150.16V154H435.783V150.496C435.783 149.832 435.639 149.372 435.351 149.116C435.071 148.852 434.723 148.72 434.307 148.72C434.019 148.72 433.731 148.788 433.443 148.924C433.155 149.06 432.915 149.28 432.723 149.584C432.539 149.888 432.447 150.296 432.447 150.808V154H431.487ZM441.257 154.12C440.761 154.12 440.305 153.996 439.889 153.748C439.473 153.5 439.141 153.144 438.893 152.68C438.645 152.208 438.521 151.648 438.521 151C438.521 150.336 438.653 149.772 438.917 149.308C439.181 148.844 439.529 148.492 439.961 148.252C440.393 148.004 440.857 147.88 441.353 147.88C441.849 147.88 442.277 148.008 442.637 148.264C443.005 148.52 443.249 148.86 443.369 149.284L443.249 149.368V145.24H444.209V154H443.369L443.285 152.548L443.417 152.476C443.361 152.828 443.225 153.128 443.009 153.376C442.801 153.616 442.541 153.8 442.229 153.928C441.925 154.056 441.601 154.12 441.257 154.12ZM441.353 153.28C441.737 153.28 442.069 153.184 442.349 152.992C442.637 152.8 442.857 152.528 443.009 152.176C443.169 151.816 443.249 151.396 443.249 150.916C443.249 150.46 443.169 150.068 443.009 149.74C442.857 149.412 442.641 149.16 442.361 148.984C442.089 148.808 441.769 148.72 441.401 148.72C440.793 148.72 440.321 148.928 439.985 149.344C439.649 149.76 439.481 150.312 439.481 151C439.481 151.688 439.645 152.24 439.973 152.656C440.301 153.072 440.761 153.28 441.353 153.28Z" fill="#2D2D2D"/>
</g>
<defs>
<filter id="filter0_d_603_4103" x="364" y="135" width="98" height="38" filterUnits="userSpaceOnUse" color-interpolation-filters="sRGB">
<feFlood flood-opacity="0" result="BackgroundImageFix"/>
<feColorMatrix in="SourceAlpha" type="matrix" values="0 0 0 0 0 0 0 0 0 0 0 0 0 0 0 0 0 0 127 0" result="hardAlpha"/>
<feOffset dy="4"/>
<feGaussianBlur stdDeviation="2"/>
<feComposite in2="hardAlpha" operator="out"/>
<feColorMatrix type="matrix" values="0 0 0 0 0 0 0 0 0 0 0 0 0 0 0 0 0 0 0.1 0"/>
<feBlend mode="normal" in2="BackgroundImageFix" result="effect1_dropShadow_603_4103"/>
<feBlend mode="normal" in="SourceGraphic" in2="effect1_dropShadow_603_4103" result="shape"/>
</filter>
<linearGradient id="paint0_linear_603_4103" x1="265" y1="102" x2="265" y2="195" gradientUnits="userSpaceOnUse">
<stop stop-color="#D9FAF7"/>
<stop offset="1" stop-color="white"/>
</linearGradient>
<linearGradient id="paint1_linear_603_4103" x1="5.68349e-06" y1="30.5" x2="531" y2="202" gradientUnits="userSpaceOnUse">
<stop stop-color="#27E9B6"/>
<stop offset="0.5" stop-color="#00F17B"/>
<stop offset="1" stop-color="#00D9D9"/>
</linearGradient>
<linearGradient id="paint2_linear_603_4103" x1="87.5" y1="9" x2="87.5" y2="202" gradientUnits="userSpaceOnUse">
<stop offset="0.666818" stop-color="#DCDEE3"/>
<stop offset="1" stop-color="white"/>
</linearGradient>
<linearGradient id="paint3_linear_603_4103" x1="175.5" y1="9" x2="175.5" y2="202" gradientUnits="userSpaceOnUse">
<stop offset="0.666818" stop-color="#DCDEE3"/>
<stop offset="1" stop-color="white"/>
</linearGradient>
<linearGradient id="paint4_linear_603_4103" x1="263.5" y1="9" x2="263.5" y2="202" gradientUnits="userSpaceOnUse">
<stop offset="0.666818" stop-color="#DCDEE3"/>
<stop offset="1" stop-color="white"/>
</linearGradient>
<linearGradient id="paint5_linear_603_4103" x1="351.5" y1="9" x2="351.5" y2="202" gradientUnits="userSpaceOnUse">
<stop offset="0.666818" stop-color="#DCDEE3"/>
<stop offset="1" stop-color="white"/>
</linearGradient>
<linearGradient id="paint6_linear_603_4103" x1="439.5" y1="9" x2="439.5" y2="202" gradientUnits="userSpaceOnUse">
<stop offset="0.666818" stop-color="#DCDEE3"/>
<stop offset="1" stop-color="white"/>
</linearGradient>
</defs>
</svg>
